<svg id="Layer_1" data-name="Layer 1" xmlns="http://www.w3.org/2000/svg" xmlns:xlink="http://www.w3.org/1999/xlink" viewBox="0 0 1651 391"><defs><style>.cls-1{fill:url(#linear-gradient);}.cls-2{fill:#031b33;}</style><linearGradient id="linear-gradient" x1="271.75" y1="23.55" x2="271.75" y2="367.45" gradientUnits="userSpaceOnUse"><stop offset="0" stop-color="#00b6b4"/><stop offset="0.06" stop-color="#0ba4b1"/><stop offset="0.2" stop-color="#247caa"/><stop offset="0.35" stop-color="#395ba5"/><stop offset="0.5" stop-color="#4941a0"/><stop offset="0.66" stop-color="#542f9d"/><stop offset="0.82" stop-color="#5b249c"/><stop offset="1" stop-color="#5d209b"/></linearGradient></defs><path class="cls-1" d="M285.77,24.11A172,172,0,0,0,100.35,209.5C107,293.29,174,360.26,257.73,366.89A172,172,0,0,0,443.15,181.5C436.52,97.72,369.55,30.74,285.77,24.11Zm81.3,243.35v.14a11.81,11.81,0,0,1-11.82,11.45q-19.86,0-39.72,0H188.26c-7.6,0-11.87-4.21-11.87-11.78q0-42.87,0-85.72a19.19,19.19,0,0,1,8.56-16.5q36.81-25.68,73.73-51.18a2.21,2.21,0,0,1,1.32-.4l2.48,0a2.19,2.19,0,0,1,1.36.5,19.51,19.51,0,0,1,2.71,2.74c4.87,6,6.33,13.12,6.68,20.59,0,.59-.29.62-.74.63-1.3,0-2.61.06-3.91.06a7.46,7.46,0,0,0-6.44,3.38c-2.91,4.15-5.71,8.37-8.72,12.44a17.1,17.1,0,0,0-3.31,10.43c-.07,13.31-.29,26.62-.46,39.93-.09,7.06-.2,14.11-.28,21.17,0,3.89,2.27,6.16,6.14,6.12,1.52,0,3,0,4.55-.07,11.8-.17,23.59-.37,35.39-.48,3.41,0,4.91-1.91,5.26-5a13.48,13.48,0,0,0,.05-1.42q.17-12.09.32-24.2.24-19.42.5-38.85a10.81,10.81,0,0,0-2.06-6.74c-3.49-4.74-7.06-9.43-10.6-14.15a7.15,7.15,0,0,0-4.43-2.72,12.57,12.57,0,0,0-2.81-.07c-1.43,0-1.44,0-1.5-1.37a47,47,0,0,0-2.06-12.07,38,38,0,0,0-3.7-8.5,2.6,2.6,0,0,1,3.66-3.51l.09.06q40.33,27.78,80.66,55.62c6,4.13,8.27,10.1,8.27,17.13v73C367.1,261.33,367.15,264.4,367.07,267.46Z"/><path class="cls-2" d="M552.27,137.42h12.11v56.15h76.68V137.42h12.11V260.07H641.06V204.45H564.38v55.62H552.27Z"/><path class="cls-2" d="M750.38,173.65a42.36,42.36,0,0,1,16.49,16.41,47.54,47.54,0,0,1,6,23.86,48.38,48.38,0,0,1-6,24.13,42.2,42.2,0,0,1-16.49,16.5,51.45,51.45,0,0,1-47.73,0,42.13,42.13,0,0,1-16.49-16.5,48.38,48.38,0,0,1-6-24.13,47.54,47.54,0,0,1,6-23.86,42.3,42.3,0,0,1,16.49-16.41,51.45,51.45,0,0,1,47.73,0Zm-41.76,8.87a31.64,31.64,0,0,0-12.29,12.8,42.82,42.82,0,0,0,0,37.73,31.61,31.61,0,0,0,12.29,12.81,37.39,37.39,0,0,0,35.79,0,31.61,31.61,0,0,0,12.29-12.81,42.82,42.82,0,0,0,0-37.73,31.64,31.64,0,0,0-12.29-12.8,37.32,37.32,0,0,0-35.79,0Z"/><path class="cls-2" d="M876.72,168.13v91.94H864.78V238.14a34.41,34.41,0,0,1-13.59,16.49q-9,5.63-21.85,5.79-16.32,0-25.53-9.56t-9.21-26.23v-56.5h11.93v53.69q0,13,7.11,20.27t19.56,7.28q14.74-.18,23.16-10.09t8.42-26.06V168.13Z"/><path class="cls-2" d="M946.73,179.27a46.72,46.72,0,0,0-12.81-1.84q-8.77,0-14.13,3.42t-5.35,10.26a10.57,10.57,0,0,0,2.9,7.72,21.85,21.85,0,0,0,7.19,4.83,113,113,0,0,0,12,4.12A122.84,122.84,0,0,1,952,213.31a28,28,0,0,1,10.18,7.9q4.22,5.17,4.21,13.6,0,12.45-9.48,19t-23.68,6.58a56.87,56.87,0,0,1-19.31-3.33,42.57,42.57,0,0,1-15.61-9.48l4.73-8.42a44.7,44.7,0,0,0,14.13,8.6A45.51,45.51,0,0,0,933.74,251q9.3,0,15.18-3.86a12.6,12.6,0,0,0,5.88-11.23,11.9,11.9,0,0,0-3-8.34,20.82,20.82,0,0,0-7.46-5.09c-3-1.22-7.11-2.66-12.37-4.29a124.12,124.12,0,0,1-15.09-5.44,26.65,26.65,0,0,1-9.83-7.64q-4-5-4-13.07,0-12.11,9-18.25t22.55-6.14a55,55,0,0,1,15.26,2.11,49.75,49.75,0,0,1,13.17,5.79l-4.57,8.95A44.48,44.48,0,0,0,946.73,179.27Z"/><path class="cls-2" d="M1058.15,181.37Q1069.37,195,1068.5,218H991.82q1.23,14.74,10.88,23.78t23.86,9a41.76,41.76,0,0,0,16.32-3.16,37.36,37.36,0,0,0,13-8.94l6.66,6.66a45.79,45.79,0,0,1-16,11.15,52.7,52.7,0,0,1-20.62,3.94,47.12,47.12,0,0,1-23.69-5.87,42.11,42.11,0,0,1-16.23-16.41,51.9,51.9,0,0,1,0-48,42,42,0,0,1,16.23-16.5,46.51,46.51,0,0,1,23.34-5.87Q1046.92,167.78,1058.15,181.37Zm-.18,27.47q-.87-14.4-9.56-22.9t-22.72-8.51q-13.87,0-23.17,8.59t-10.7,22.82Z"/><path class="cls-2" d="M1175,145.05a57.39,57.39,0,0,1,22.81,21.85,61.49,61.49,0,0,1,8.25,31.76,60.5,60.5,0,0,1-8.34,31.67,58.57,58.57,0,0,1-23.07,21.85q-14.75,7.89-33.52,7.89H1091V137.24H1142Q1160.44,137.24,1175,145.05Zm-12.2,89.14a36.75,36.75,0,0,0,14.13-14.39,45.38,45.38,0,0,0-.18-42.11,37.24,37.24,0,0,0-14.47-14.56,41.38,41.38,0,0,0-20.62-5.18h-27.2v81.42h28.08A40,40,0,0,0,1162.81,234.19Z"/><path class="cls-2" d="M1298.63,178.3q11.31,12.81,11.31,36,0,4.57-.17,6.85h-69.31q2.28,10,9.38,15.7t17.46,5.71a35.8,35.8,0,0,0,13.78-2.72,33.83,33.83,0,0,0,11.49-7.81l12.28,12.81a47.52,47.52,0,0,1-17.1,11.93,57.54,57.54,0,0,1-22.38,4.21q-14.38,0-25.35-6a41.63,41.63,0,0,1-16.93-16.75,54.48,54.48,0,0,1,.08-49.75,42.84,42.84,0,0,1,16.94-16.93,50,50,0,0,1,24.74-6.06Q1287.3,165.49,1298.63,178.3Zm-9.57,27.55q-.35-10.35-6.84-16.49t-17.2-6.14a24.18,24.18,0,0,0-16.75,6.05q-6.76,6.06-8.34,16.58Z"/><path class="cls-2" d="M1385,260.07v-11.4a30.77,30.77,0,0,1-12.63,9.3,46.6,46.6,0,0,1-17.72,3.16,37.73,37.73,0,0,1-17.29-3.78,27.61,27.61,0,0,1-11.49-10.44,28.21,28.21,0,0,1-4-14.91q0-13.17,9.3-20.62t26.33-7.63h27.37v-2.46q0-8.25-5.44-12.81t-15.79-4.56q-13.34,0-27.9,8.77l-8.25-15.79a104,104,0,0,1,20.09-8.86,73.74,73.74,0,0,1,21.15-2.72q18.24,0,28.33,8.77t10.27,24.57l.17,61.41ZM1377,238.93q7-4.65,7.9-11.49V219h-23.69q-9.12,0-13.42,2.72t-4.3,8.86a11.42,11.42,0,0,0,4.47,9.48q4.47,3.51,12.2,3.51A29.79,29.79,0,0,0,1377,238.93Z"/><path class="cls-2" d="M1434,129.87h22.81v130.2H1434Z"/><path class="cls-2" d="M1527.61,185.32a45.22,45.22,0,0,0-13.42-2.28c-3.87,0-6.94.68-9.22,2a6.74,6.74,0,0,0-3.42,6.23q0,4.38,4.3,6.75t13.6,5a131.15,131.15,0,0,1,16.14,5.87,30.43,30.43,0,0,1,11,8.6q4.65,5.7,4.65,15,0,13.69-10.53,21.06T1514.19,261a67.27,67.27,0,0,1-21.24-3.42,49.93,49.93,0,0,1-17.54-9.74l7.89-16a46,46,0,0,0,15.09,8.51,50.43,50.43,0,0,0,16.67,3.07q6.32,0,10.09-2.19a7.12,7.12,0,0,0,3.77-6.58,8,8,0,0,0-4.38-7.37q-4.39-2.46-14.22-5.44a120.29,120.29,0,0,1-15.44-5.53,28,28,0,0,1-10.35-8.24q-4.38-5.53-4.39-14.48,0-13.86,10.09-21.14t25.36-7.29a65.12,65.12,0,0,1,18.34,2.64,56.8,56.8,0,0,1,16,7.37l-8.25,16.49A67.46,67.46,0,0,0,1527.61,185.32Z"/></svg>